<?xml version="1.0" encoding="utf-8"?>
<!-- Generator: Adobe Illustrator 25.2.3, SVG Export Plug-In . SVG Version: 6.00 Build 0)  -->
<svg version="1.1" id="Capa_1" xmlns="http://www.w3.org/2000/svg" xmlns:xlink="http://www.w3.org/1999/xlink" x="0px" y="0px"
	 viewBox="0 0 256 256" style="enable-background:new 0 0 256 256;" xml:space="preserve">
<style type="text/css">
	.st0{fill:#8AC905;}
</style>
<g>
	<path class="st0" d="M18.3,254.1c-2.8-1.6-3.6-4-3.4-7.2c2.1-28.5,15-50.3,41-63.1c8.1-4,17.1-6.3,25.8-9.1
		c2.4-0.8,3.8-1.9,4.9-4.2c2.1-4.6,4.5-9.1,6.4-13c-3.3-5.2-6.4-10-9.5-14.7c-0.4-0.6-1.5-0.9-2.4-1c-2.8-0.5-5.8-0.4-8.3-1.5
		c-5.7-2.3-8.4-7-8.7-13.1c-0.1-2,0-3.9,0-5.9c-7.3-3.2-10.1-8.9-9.9-16.5c0.3-11.7-0.3-23.4,0.6-35c1.3-18.3,9.1-34,22.4-46.6
		c16.3-15.4,35.9-22,58.2-19.8c20.3,2,37,11.3,49.8,27.2c11.2,13.9,16.3,29.9,16.2,47.7c0,9.2,0,18.3,0,27.5
		c0,10.3-6,16.3-16.2,16.4c-2.4,0-4.7,0-7.5,0c-1.4,13.2-6.1,25-15.5,34.6c2.7,5.4,5.3,10.7,8,15.9c0.4,0.7,1.5,1.2,2.3,1.5
		c7,2.4,14.1,4.6,21.1,7.1c20.6,7.3,34,21.9,42.1,41.8c3.1,7.6,4.5,15.6,5,23.9c0.2,3.2-0.6,5.6-3.4,7.2
		C164.1,254.1,91.2,254.1,18.3,254.1z M171.5,86.5c-1.3-0.2-2.4-0.4-3.4-0.6c-4.1-0.7-8.2-1.3-12.3-2.3
		c-14.6-3.5-27.4-10.4-38.6-20.4c-0.7-0.6-1.9-1.2-2.7-1.1c-6.3,0.6-12,2.8-17.2,6.5c-5.2,3.8-8.6,9.1-12.4,14.1
		c-0.7,0.9-1.2,2.4-1.1,3.5c0.9,10.7,1.9,21.5,3.1,32.2c0.5,4.5,1.5,8.9,2.3,13.5c4.5,0,8.6,0,12.7,0c1.3,0,2-0.4,2.6-1.6
		c2.7-5.4,7.2-8.1,13.2-8.2c3.3-0.1,6.5-0.1,9.8,0c8.3,0.3,14.7,6.7,14.6,14.7c0,8-6.4,14.4-14.7,14.6c-2.9,0.1-5.9,0-8.8,0
		c-6.5,0-11.3-2.7-14.3-8.5c-0.3-0.5-0.8-1.2-1.3-1.2c-3-0.1-5.9-0.1-9.2-0.1c4.5,7.4,10.2,12.9,17.6,16.2c23.3,10.3,47.6-3,54.1-27
		c2.2-8.2,3-16.7,4.1-25.1C170.6,99.5,171,93,171.5,86.5z M85.5,183.7c-6.4,2.1-12.2,4.2-18.1,6c-15.4,4.7-26.7,14.5-34.5,28.3
		c-4.6,8-7.3,16.7-7.9,26.1c31.3,0,62.3,0,94.1,0C105.8,224.9,92.8,206,85.5,183.7z M136.6,244.2c31.5,0,62.6,0,93.9,0
		c-0.3-2-0.4-3.9-0.8-5.7c-4.2-20.7-14.9-36.7-34.4-45.7c-7.5-3.5-15.7-5.6-23.5-8.3c-0.6-0.2-1.2-0.3-1.2-0.3
		c-5.2,10.5-9.8,21-15.4,30.9C149.6,224.9,143,234.3,136.6,244.2z M171.5,76.4c0.1-0.2,0.2-0.3,0.2-0.5c1.8-17-9-34.3-24.9-40.6
		c-7.7-3.1-15.6-3.1-23.6-2.8c-15.7,0.4-27.4,7.6-35,21.3c-2.3,4.2-3.8,8.7-4.2,13.6c0.3,0,0.4,0,0.5,0c0.4-0.3,0.7-0.7,1-1
		c7.9-8.4,17.6-12.9,29.1-14.1c3.4-0.4,6.1,0.6,8.6,3C136.7,67.9,153.1,74.6,171.5,76.4z M191,71.5c-1.3-28.7-26.3-58.5-63.1-58.7
		c-36.6-0.2-62.1,29.3-63.6,58.7c3.1,0,6.1,0,9.3,0c0.1-0.9,0.1-1.7,0.2-2.5c2.1-20.8,12.9-35.3,32.3-43.3c9.4-3.9,19.4-3.5,29.3-3
		c21,1.2,39,16.1,44.3,36.3c1.1,4.1,1.6,8.3,2.3,12.4C185,71.5,188,71.5,191,71.5z M127.4,194.1c-0.4,0.2-0.6,0.3-0.8,0.5
		c-5.3,5.6-10.5,11.2-15.9,16.7c-1.2,1.2-0.5,2,0.1,2.9c5.3,8,10.5,16.1,15.8,24.2c0.3,0.4,0.7,0.8,1,1.2c5-7.6,10-14.9,14.9-22.4
		c3.1-4.8,3.1-4.8-1-8.9C136.8,203.5,132.1,198.8,127.4,194.1z M150.7,202.9c0,0,0.2-0.1,0.2-0.2c3.4-7.9,6.9-15.8,10.3-23.8
		c0.2-0.4,0.4-1,0.2-1.4c-2.1-4.3-4.2-8.5-6.4-13c-7.1,7.6-14,14.8-20.7,21.9C139.9,192.1,145.3,197.5,150.7,202.9z M104.3,203.8
		c5.7-6,10.8-11.4,15.3-16.2c-7-7-13.8-13.8-20.5-20.5c-1.5,3-3.2,6.3-4.8,9.7c-0.3,0.6-0.5,1.5-0.3,2
		C97.4,186.9,100.7,195,104.3,203.8z M76.1,112.3c-0.8-10.4-1.6-20.5-2.4-30.7c-3.2,0-6.4,0-9.7,0c0,8.7-0.1,17.1,0,25.6
		c0,3,1.9,4.9,4.9,5.1C71.1,112.4,73.5,112.3,76.1,112.3z M181.7,81.5c-0.8,10.3-1.6,20.4-2.4,30.8c2.1,0,4.1,0,6.1,0
		c4.3,0,6.1-1.8,6.1-6.2c0-7.6,0-15.2,0-22.7c0-0.6-0.1-1.2-0.2-1.9C188,81.5,184.9,81.5,181.7,81.5z M122.5,141.8
		c1.7,0,3.4,0.1,5.1,0c2.9-0.2,4.9-2.3,4.9-4.9c0-2.6-2-4.7-4.9-4.9c-3.3-0.1-6.5-0.1-9.8,0c-2.9,0.1-4.9,2.3-4.9,4.9
		c0,2.6,2,4.7,4.9,4.9C119.4,141.9,121,141.8,122.5,141.8z M127.3,179.5c2.6-2.7,5.2-5.6,8.2-8.7c-6.1,0-11.7,0-16.8,0
		C121.2,173.4,124.2,176.4,127.3,179.5z M74,122.3c-1,5.3,0.1,10.2,5.4,9.4c-0.3-1.5-0.5-3-0.8-4.6c-0.3-1.6-0.6-3.2-0.9-4.8
		C76.3,122.3,75.1,122.3,74,122.3z"/>
	<path class="st0" d="M210.3,231.5c-0.7-0.5-2.4-1.3-3.2-2.6c-3-5.2-6.7-9.8-11.3-13.7c-2.4-2-2.4-4.9-0.6-7c1.8-2.1,4.6-2.3,7-0.3
		c5.6,4.4,10,9.8,13.2,16.1C217.3,227.7,215.1,231.5,210.3,231.5z"/>
	<path class="st0" d="M181.6,207c-2.6,0-4.9-2.3-4.8-4.9c0-2.6,2.3-4.9,4.9-4.8c2.6,0,4.9,2.3,4.8,4.9
		C186.5,204.7,184.1,207,181.6,207z"/>
</g>
</svg>
