<svg xmlns="http://www.w3.org/2000/svg" viewBox="0 0 120 120" role="img" aria-label="Avatar"><circle cx="60" cy="60" r="60" fill="#0f3a5c"/><clipPath id="c"><circle cx="60" cy="60" r="60"/></clipPath><g clip-path="url(#c)"><path d="M14 120 Q16 88 44 84 L76 84 Q104 88 106 120 Z" fill="#1f2d3d"/><path d="M48 84 L60 104 L72 84 Z" fill="#ffffff"/><path d="M57 88 L63 88 L62 92 L64 104 L60 108 L56 104 L58 92 Z" fill="#e3a21a"/><rect x="52" y="68" width="16" height="18" rx="4" fill="#f4c6a0"/><ellipse cx="60" cy="52" rx="19" ry="23" fill="#f4c6a0"/><ellipse cx="41" cy="54" rx="3" ry="5" fill="#f4c6a0"/><ellipse cx="79" cy="54" rx="3" ry="5" fill="#f4c6a0"/><path d="M41 48 Q40 26 60 26 Q80 26 79 48 Q76 36 60 35 Q44 36 41 48 Z" fill="#5a3a22"/><path d="M42 56 Q44 78 60 78 Q76 78 78 56 Q72 66 60 66 Q48 66 42 56 Z" fill="#3b2415"/><path d="M52 63 Q60 58 68 63 Q60 61 52 63 Z" fill="#3b2415"/></g></svg>
